<svg version="1.1" xmlns="http://www.w3.org/2000/svg" width="1024" height="1024" viewBox="0 0 1024 1024">
<path fill="#92c323" d="M864.44 544.309c-38.047-41.019-88.707-68.187-151.97-81.483v-5.516c44.028-18.314 78.51-46.973 103.502-85.955 24.978-38.96 37.473-83.434 37.473-133.403 0-43.098-9.062-81.149-27.146-114.181-18.125-33.010-45.515-59.365-82.187-79.066-33.945-18.341-70.248-30.375-108.999-36.113-38.752-5.733-95.709-8.592-170.913-8.592h-361.742v1024h409.895c71.047 0 129.649-6.442 175.701-19.272 46.069-12.812 88.386-34.37 126.884-64.646 32.572-25.217 58.471-57.079 77.71-95.6 19.235-38.511 28.894-83.195 28.894-134.094 0-69.664-19.032-125.045-57.102-166.079zM358.322 187.73h17.862c45.849 0 80.349 0.348 103.488 1.030 23.175 0.696 43.205 4.711 60.201 12.035 17.881 7.815 31.027 20.41 39.511 37.83 8.489 17.434 12.74 34.392 12.74 50.881 0 22.493-3.916 42.199-11.682 59.148-7.815 16.982-22.022 30.276-42.65 39.89-18.811 8.719-37.008 13.521-54.667 14.456-17.659 0.926-48.483 1.356-92.497 1.356h-32.309v-216.625zM640.61 771.948c-10.77 19.479-27.856 34.288-51.234 44.335-26.612 11.483-52.738 17.681-78.397 18.58-25.683 0.918-71.991 1.4-138.897 1.4h-13.76v-256.542h47.425c45.866 0 82.409 0.343 109.686 1.039 27.281 0.687 48.727 4.025 64.303 9.98 25.686 9.175 44.918 22.682 57.77 40.563s19.276 42.636 19.276 74.273c0 24.751-5.403 46.897-16.173 66.372z"></path>
</svg>
